<svg width="620" height="405" viewBox="0 0 620 405" fill="none" xmlns="http://www.w3.org/2000/svg">
<path fill-rule="evenodd" clip-rule="evenodd" d="M497.004 0.500001C500.075 -0.0754992 502.075 1.0912 503.004 4C496.102 20.8738 489.102 37.707 482.004 54.5C486.68 54.345 491.513 54.678 496.504 55.5C504.181 53.829 511.848 52.162 519.504 50.5C522.984 50.452 526.317 51.119 529.504 52.5C530.004 52.167 530.504 51.833 531.004 51.5C529.96 49.232 529.793 46.899 530.504 44.5C534.104 41.646 537.104 42.313 539.504 46.5C541.171 48.833 542.837 51.167 544.504 53.5C545.066 48.917 546.399 44.583 548.504 40.5C549.553 39.483 550.72 39.316 552.004 40C554.58 47.318 558.08 54.151 562.504 60.5C565.891 63.553 569.557 66.22 573.504 68.5C578.206 76.228 582.539 84.228 586.504 92.5C592.202 109.202 600.869 124.202 612.504 137.5C615.549 142.258 618.049 147.258 620.004 152.5C617.373 159.293 613.373 165.127 608.004 170C600.993 173.253 593.993 173.253 587.004 170C582.892 165.609 579.392 160.776 576.504 155.5C573.337 153.667 570.837 151.167 569.004 148C564.7 146.894 560.367 145.894 556.004 145C549.337 141.667 542.671 138.333 536.004 135C525.705 133.318 516.705 135.985 509.004 143C500.453 151.186 491.619 159.019 482.504 166.5C480.754 169.246 479.754 172.246 479.504 175.5C479.014 184.18 478.348 192.847 477.504 201.5C476.036 207.27 473.87 212.77 471.004 218C474.187 224.192 478.52 229.525 484.004 234C510.859 245.759 534.192 262.425 554.004 284C559.337 288 564.671 292 570.004 296C574.099 299.704 577.599 303.871 580.504 308.5C586.46 314.636 592.794 320.302 599.504 325.5C602.911 329.628 604.578 334.295 604.504 339.5C603.601 340.701 602.435 341.535 601.004 342C593.59 342.89 586.257 342.557 579.004 341C574.959 336.418 571.793 331.251 569.504 325.5C565.17 321.047 560.003 317.88 554.004 316C549.88 310.923 546.38 305.423 543.504 299.5C540.303 295.964 536.803 292.797 533.004 290C523.177 284.92 513.51 279.587 504.004 274C489.782 269.695 475.449 265.861 461.004 262.5C460.423 276.991 461.59 291.324 464.504 305.5C471.768 325.624 478.434 345.958 484.504 366.5C486.462 371.59 489.296 376.09 493.004 380C498.803 383.047 504.803 385.714 511.004 388C516.247 393.409 516.247 398.742 511.004 404C501.273 404.192 491.607 404.359 482.004 404.5C482.004 403.5 482.004 402.5 482.004 401.5C483.056 401.649 484.056 401.483 485.004 401C479.258 398.247 474.425 394.414 470.504 389.5C465.837 378.833 461.171 368.167 456.504 357.5C451.445 350.772 446.778 343.772 442.504 336.5C437.626 308.033 428.459 281.033 415.004 255.5C414.004 255.167 413.004 254.833 412.004 254.5C404.039 255.663 396.039 256.496 388.004 257C385.378 259.146 382.378 260.479 379.004 261C373.337 261.667 367.671 261.667 362.004 261C358.456 260.559 355.456 259.059 353.004 256.5C336.248 255.027 319.581 252.86 303.004 250C286.004 245 269.004 240 252.004 235C241.167 231.794 230.167 230.628 219.004 231.5C216.151 235.187 212.818 238.353 209.004 241C197.33 247.835 185.997 255.168 175.004 263C154.887 283.773 137.053 306.273 121.504 330.5C114.379 346.889 113.379 363.555 118.504 380.5C123.149 384.655 128.149 388.322 133.504 391.5C135.367 395.649 136.534 399.982 137.004 404.5C127.332 404.666 117.665 404.5 108.004 404C105.989 400.305 104.155 396.472 102.504 392.5C98.2248 388.221 93.8908 383.887 89.5038 379.5C88.0468 375.259 87.7128 370.926 88.5038 366.5C97.0268 345.418 102.194 323.751 104.004 301.5C92.6688 310.191 83.1688 320.524 75.5038 332.5C70.0718 339.429 62.9048 342.929 54.0038 343C46.8878 346.559 39.5548 349.559 32.0038 352C28.2597 352.929 24.7597 352.429 21.5038 350.5C21.1911 342.105 23.6911 334.605 29.0038 328C31.4038 326.299 34.0704 325.466 37.0038 325.5C40.0068 326.138 43.0068 326.305 46.0038 326C55.7288 319.281 64.5618 311.448 72.5038 302.5C79.7508 292.34 86.7508 282.006 93.5038 271.5C101.222 261.546 111.055 254.379 123.004 250C127.79 246.882 132.29 243.382 136.504 239.5C134.98 224.731 133.813 209.897 133.004 195C132.992 187.425 133.659 179.925 135.004 172.5C130.9 172.884 127.233 174.384 124.004 177C115.428 186.583 105.428 194.249 94.0038 200C84.9318 203.067 75.9318 203.067 67.0038 200C65.9298 199.261 65.2628 198.261 65.0038 197C68.7708 193.233 72.6038 189.4 76.5038 185.5C77.1878 184.216 77.0208 183.049 76.0038 182C61.6708 181.667 47.3368 181.333 33.0038 181C21.2628 179.38 11.4295 174.214 3.5038 165.5C1.6635 163.319 0.496899 160.819 0.00379947 158C-0.0569005 156.289 0.609699 154.956 2.0038 154C14.8939 153.714 27.7272 154.548 40.5038 156.5C44.3918 156.406 48.2248 155.906 52.0038 155C58.0038 151.333 64.0038 147.667 70.0038 144C83.9138 141.472 97.9138 139.472 112.004 138C124.671 132.667 137.337 127.333 150.004 122C157.574 121.326 165.074 121.826 172.504 123.5C185.682 118.569 199.349 116.235 213.504 116.5C232.547 117.19 251.381 119.523 270.004 123.5C287.656 121.778 305.322 119.778 323.004 117.5C325.002 116.033 326.668 114.2 328.004 112C315.82 109.939 304.154 106.272 293.004 101C283.23 94.36 279.73 85.193 282.504 73.5C286.147 64.388 291.647 56.555 299.004 50C303.65 48.746 307.316 46.08 310.004 42C316.862 37.907 324.195 34.907 332.004 33C342.004 32.667 352.004 32.333 362.004 32C366.702 29.651 371.368 27.318 376.004 25C379.729 24.2401 383.396 24.4068 387.004 25.5C390.789 19.8809 395.455 15.0476 401.004 11C416.348 6.9235 427.182 12.0902 433.504 26.5C434.175 31.2 435.008 35.866 436.004 40.5C441.115 42.629 441.282 44.962 436.504 47.5C433.955 46.481 431.455 46.481 429.004 47.5C428.33 49.517 427.163 51.183 425.504 52.5C425.438 56.233 424.605 59.733 423.004 63C418.026 63.326 413.526 64.826 409.504 67.5C407.297 66.97 405.297 65.97 403.504 64.5C404.574 67.212 406.741 69.045 410.004 70C418.181 70.592 426.348 70.425 434.504 69.5C440.297 70.657 446.131 71.157 452.004 71C457.14 65.624 463.473 62.79 471.004 62.5C479.152 41.547 487.818 20.8807 497.004 0.500001Z" fill="black"/>
<path fill-rule="evenodd" clip-rule="evenodd" d="M497.004 8.5C496.995 6.6916 497.495 5.0249 498.504 3.5C499.103 5.5348 498.603 7.2015 497.004 8.5Z" fill="#E8318A"/>
<path fill-rule="evenodd" clip-rule="evenodd" d="M497.004 8.5C497.102 10.5529 496.435 12.2196 495.004 13.5C494.906 11.4471 495.573 9.7804 497.004 8.5Z" fill="#E8318A"/>
<path fill-rule="evenodd" clip-rule="evenodd" d="M405.004 12.5C417.787 11.1358 426.287 16.4691 430.504 28.5C431.219 33.4 432.052 38.233 433.004 43C428.381 42.854 423.714 42.52 419.004 42C410.728 39.846 402.395 38.179 394.004 37C389.59 36.252 388.09 33.752 389.504 29.5C392.44 21.7339 397.606 16.0672 405.004 12.5Z" fill="#414051"/>
<path fill-rule="evenodd" clip-rule="evenodd" d="M495.004 13.5C495.013 15.3084 494.513 16.9751 493.504 18.5C492.905 16.4652 493.405 14.7985 495.004 13.5Z" fill="#E8318A"/>
<path fill-rule="evenodd" clip-rule="evenodd" d="M490.004 25.5C489.995 23.6916 490.495 22.0249 491.504 20.5C492.103 22.5348 491.603 24.2015 490.004 25.5Z" fill="#E8318A"/>
<path fill-rule="evenodd" clip-rule="evenodd" d="M490.004 25.5C490.102 27.553 489.435 29.22 488.004 30.5C487.906 28.447 488.573 26.7804 490.004 25.5Z" fill="#E8318A"/>
<path fill-rule="evenodd" clip-rule="evenodd" d="M377.004 27.5C380.385 27.46 383.718 27.793 387.004 28.5C386.219 32.596 387.386 35.93 390.504 38.5C393.013 48.504 396.347 58.171 400.504 67.5C403.801 70.567 407.635 72.733 412.004 74C421.989 73.62 431.989 73.62 442.004 74C444.407 79.288 444.573 84.788 442.504 90.5C441.437 91.191 440.27 91.691 439.004 92C431.54 92.682 424.207 94.016 417.004 96C414.004 96.667 411.004 96.667 408.004 96C398.392 91.861 389.058 87.194 380.004 82C375.066 77.736 370.899 72.903 367.504 67.5C367.004 67.833 366.504 68.167 366.004 68.5C369.567 76.064 374.9 82.064 382.004 86.5C377.897 90.545 372.897 92.879 367.004 93.5C361.881 89.766 356.547 86.266 351.004 83C340.229 78.89 329.229 75.557 318.004 73C315.587 71.337 313.754 69.171 312.504 66.5C310.36 60.268 309.027 53.935 308.504 47.5C323.883 36.049 341.049 32.215 360.004 36C366.01 33.663 371.677 30.83 377.004 27.5Z" fill="#5853FF"/>
<path fill-rule="evenodd" clip-rule="evenodd" d="M488.004 30.5C488.102 32.553 487.435 34.22 486.004 35.5C485.906 33.447 486.573 31.78 488.004 30.5Z" fill="#E8318A"/>
<path fill-rule="evenodd" clip-rule="evenodd" d="M486.004 35.5C486.102 37.553 485.435 39.22 484.004 40.5C483.906 38.447 484.573 36.78 486.004 35.5Z" fill="#E8318A"/>
<path fill-rule="evenodd" clip-rule="evenodd" d="M394.004 39.5C399.581 39.525 404.915 40.692 410.004 43C401.078 55.453 395.744 54.286 394.004 39.5Z" fill="#685C59"/>
<path fill-rule="evenodd" clip-rule="evenodd" d="M484.004 40.5C483.797 43.241 482.797 45.574 481.004 47.5C481.211 44.759 482.211 42.426 484.004 40.5Z" fill="#E8318A"/>
<path fill-rule="evenodd" clip-rule="evenodd" d="M412.004 43.5C416.86 43.763 421.527 44.763 426.004 46.5C424.689 48.316 423.189 49.983 421.504 51.5C421.007 54.146 420.84 56.813 421.004 59.5C416.202 59.361 412.202 61.027 409.004 64.5C406.235 62.394 403.235 60.727 400.004 59.5C399.337 57.833 398.671 56.167 398.004 54.5C404.401 53.11 409.068 49.443 412.004 43.5Z" fill="#E8318A"/>
<path fill-rule="evenodd" clip-rule="evenodd" d="M550.004 44.5C552.248 49.48 554.914 54.314 558.004 59C552.509 60.303 549.175 58.303 548.004 53C548.597 50.13 549.263 47.297 550.004 44.5Z" fill="#54423D"/>
<path fill-rule="evenodd" clip-rule="evenodd" d="M534.004 46.5C537.674 49.981 541.007 53.814 544.004 58C548.74 60.435 553.74 62.101 559.004 63C561.004 64.333 563.004 65.667 565.004 67C557.119 69.522 550.286 73.689 544.504 79.5C541.779 72.384 538.779 65.384 535.504 58.5C534.489 54.56 533.989 50.56 534.004 46.5Z" fill="#54423D"/>
<path fill-rule="evenodd" clip-rule="evenodd" d="M481.004 47.5C481.102 49.553 480.435 51.22 479.004 52.5C478.906 50.447 479.573 48.78 481.004 47.5Z" fill="#E8318A"/>
<path fill-rule="evenodd" clip-rule="evenodd" d="M302.004 51.5C303.482 51.238 304.815 51.571 306.004 52.5C307.348 57.54 308.848 62.54 310.504 67.5C311.387 70.102 312.887 72.269 315.004 74C325.654 77.332 336.321 80.665 347.004 84C354.87 86.828 361.037 91.662 365.504 98.5C366.171 100.5 366.171 102.5 365.504 104.5C361.09 111.334 355.757 117.334 349.504 122.5C344.922 118.455 339.755 115.289 334.004 113C333.247 111.488 332.247 110.154 331.004 109C315.468 107.379 301.302 102.212 288.504 93.5C283.368 83.457 284.035 73.791 290.504 64.5C294.174 59.998 298.007 55.665 302.004 51.5Z" fill="#2F2F9B"/>
<path fill-rule="evenodd" clip-rule="evenodd" d="M479.004 52.5C479.102 54.553 478.435 56.22 477.004 57.5C476.906 55.447 477.573 53.78 479.004 52.5Z" fill="#E8318A"/>
<path fill-rule="evenodd" clip-rule="evenodd" d="M516.004 53.5C521.854 53.502 527.354 54.836 532.504 57.5C533.513 59.025 534.013 60.692 534.004 62.5C515.309 64.198 497.142 68.198 479.504 74.5C474.643 65.547 477.476 59.881 488.004 57.5C497.887 59.353 507.22 58.02 516.004 53.5Z" fill="#362824"/>
<path fill-rule="evenodd" clip-rule="evenodd" d="M477.004 57.5C476.414 62.005 474.747 66.005 472.004 69.5C471.671 69.333 471.337 69.167 471.004 69C473.176 65.153 475.176 61.319 477.004 57.5Z" fill="#E8318A"/>
<path fill-rule="evenodd" clip-rule="evenodd" d="M529.004 64.5C531.337 64.5 533.671 64.5 536.004 64.5C534.512 71.885 535.679 78.885 539.504 85.5C548.824 103.835 558.824 121.502 569.504 138.5C537.105 121.082 506.605 100.916 478.004 78C482.009 75.578 486.342 73.911 491.004 73C503.704 69.696 516.371 66.863 529.004 64.5Z" fill="#54423D"/>
<path fill-rule="evenodd" clip-rule="evenodd" d="M461.004 67.5C463.751 67.187 466.418 67.52 469.004 68.5C465.076 69.985 461.076 70.818 457.004 71C458.235 69.595 459.568 68.429 461.004 67.5Z" fill="#362824"/>
<path fill-rule="evenodd" clip-rule="evenodd" d="M565.004 69.5C566.703 69.34 568.37 69.506 570.004 70C564.489 72.923 558.822 75.59 553.004 78C551.154 80.018 549.154 81.851 547.004 83.5C545.921 82.635 545.755 81.635 546.504 80.5C551.91 75.434 558.077 71.767 565.004 69.5Z" fill="#5853FF"/>
<path fill-rule="evenodd" clip-rule="evenodd" d="M466.004 71.5C469.385 71.46 472.718 71.793 476.004 72.5C476.266 77.476 474.266 81.309 470.004 84C465.853 84.143 461.686 83.977 457.504 83.5C453.987 83.358 450.654 84.024 447.504 85.5C447.004 85.333 446.504 85.167 446.004 85C447.303 81.865 447.303 78.699 446.004 75.5C450.3 74.672 454.633 74.172 459.004 74C461.508 73.302 463.841 72.469 466.004 71.5Z" fill="#E8318A"/>
<path fill-rule="evenodd" clip-rule="evenodd" d="M568.004 73.5C569.377 73.343 570.711 73.51 572.004 74C579.044 83.58 584.378 94.08 588.004 105.5C580.235 108.604 573.235 112.938 567.004 118.5C560.671 107.833 554.337 97.167 548.004 86.5C549.486 84.517 551.153 82.684 553.004 81C558.096 78.454 563.096 75.954 568.004 73.5Z" fill="#54423D"/>
<path fill-rule="evenodd" clip-rule="evenodd" d="M476.004 80.5C492.791 92.114 509.458 103.947 526.004 116C540.173 124.586 554.507 132.919 569.004 141C570.235 142.183 570.235 143.349 569.004 144.5C536.133 127.242 505.133 107.242 476.004 84.5C474.878 83.192 474.878 81.858 476.004 80.5Z" fill="#5853FF"/>
<path fill-rule="evenodd" clip-rule="evenodd" d="M453.004 85.5C455.671 85.5 458.337 85.5 461.004 85.5C460.112 89.789 458.779 93.956 457.004 98C457.149 98.772 457.482 99.439 458.004 100C459.671 100.667 461.337 100.667 463.004 100C464.445 95.685 466.278 91.518 468.504 87.5C470.103 85.964 471.937 85.464 474.004 86C496.295 103.482 519.629 119.482 544.004 134C539.224 132.39 534.224 131.223 529.004 130.5C522.007 131.332 515.674 133.832 510.004 138C500.171 146.5 490.337 155 480.504 163.5C478.189 166.777 476.855 170.444 476.504 174.5C475.582 184.181 474.582 193.848 473.504 203.5C472.395 207.719 470.729 211.719 468.504 215.5C459.307 203.975 447.807 195.475 434.004 190C432.869 189.251 431.869 189.417 431.004 190.5C440.603 194.969 449.603 200.469 458.004 207C464.603 213.701 470.103 221.201 474.504 229.5C476.671 231.667 478.837 233.833 481.004 236C494.166 243.08 507.166 250.413 520.004 258C532.599 267.924 544.599 278.591 556.004 290C565.459 295.788 573.292 303.288 579.504 312.5C583.085 316.752 587.252 320.252 592.004 323C586.597 325.452 581.43 328.286 576.504 331.5C573.194 322.193 566.694 316.36 557.004 314C552.218 308.265 548.052 302.099 544.504 295.5C543.004 294 541.504 292.5 540.004 291C524.319 279.982 507.319 271.648 489.004 266C472.779 261.527 456.446 257.527 440.004 254C432.431 252.293 424.764 251.46 417.004 251.5C405.043 252.995 393.043 253.495 381.004 253C376.072 250.314 373.239 246.148 372.504 240.5C368.068 218.181 365.235 195.681 364.004 173C364.171 167.167 364.337 161.333 364.504 155.5C367.971 140.104 371.637 124.771 375.504 109.5C398.774 107.391 421.274 101.891 443.004 93C445.47 89.275 448.803 86.775 453.004 85.5Z" fill="#54423D"/>
<path fill-rule="evenodd" clip-rule="evenodd" d="M538.004 71.5C550.097 93.742 561.93 116.076 573.504 138.5C561.241 120.318 550.241 101.318 540.504 81.5C538.777 78.382 537.943 75.049 538.004 71.5Z" fill="#5853FF"/>
<path fill-rule="evenodd" clip-rule="evenodd" d="M385.004 88.5C388.644 90.32 392.311 92.153 396.004 94C395.337 94.667 394.671 95.333 394.004 96C389.118 97.224 384.118 97.891 379.004 98C376.968 98.454 375.134 99.287 373.504 100.5C371.729 99.73 370.229 98.563 369.004 97C373.789 95.401 378.456 93.401 383.004 91C383.885 90.292 384.551 89.458 385.004 88.5Z" fill="#E8318A"/>
<path fill-rule="evenodd" clip-rule="evenodd" d="M464.004 86.5C464.743 86.369 465.41 86.536 466.004 87C464.36 90.937 462.527 94.77 460.504 98.5C460.768 94.287 461.934 90.287 464.004 86.5Z" fill="#E8318A"/>
<path fill-rule="evenodd" clip-rule="evenodd" d="M410.004 98.5C411.337 99.167 412.671 99.833 414.004 100.5C401.531 104.044 388.864 105.711 376.004 105.5C374.836 104.094 375.169 102.928 377.004 102C382.371 101.597 387.705 100.93 393.004 100C395.677 98.999 398.011 97.499 400.004 95.5C403.184 97.095 406.517 98.095 410.004 98.5Z" fill="#362824"/>
<path fill-rule="evenodd" clip-rule="evenodd" d="M414.004 100.5C412.671 99.833 411.337 99.167 410.004 98.5C414.029 98.184 418.029 98.017 422.004 98C419.424 99.144 416.757 99.978 414.004 100.5Z" fill="#362824"/>
<path fill-rule="evenodd" clip-rule="evenodd" d="M369.004 102.5C372.012 103.848 373.345 106.182 373.004 109.5C368.701 125.712 364.868 142.045 361.504 158.5C360.834 188.486 364.334 217.986 372.004 247C373.874 252.113 377.54 255.113 383.004 256C374.364 259.176 365.697 259.176 357.004 256C352.995 251.99 350.495 247.157 349.504 241.5C346.547 218.56 344.547 195.56 343.504 172.5C348.296 167.848 348.129 163.514 343.004 159.5C340.107 147.984 342.274 137.651 349.504 128.5C352.97 123.014 357.303 118.014 362.504 113.5C365.186 110.135 367.353 106.469 369.004 102.5Z" fill="#E8318A"/>
<path fill-rule="evenodd" clip-rule="evenodd" d="M586.004 108.5C588.526 108.128 590.526 108.961 592.004 111C584.233 114.967 577.066 119.8 570.504 125.5C569.548 124.421 568.715 123.255 568.004 122C573.339 116.482 579.339 111.982 586.004 108.5Z" fill="#5853FF"/>
<path fill-rule="evenodd" clip-rule="evenodd" d="M329.004 114.5C335.287 115.808 340.954 118.474 346.004 122.5C346.919 123.328 347.585 124.328 348.004 125.5C341.517 133.498 336.017 142.165 331.504 151.5C329.608 152.68 328.108 154.18 327.004 156C327.324 157.653 328.324 158.653 330.004 159C334.607 159.892 339.107 161.059 343.504 162.5C345.042 167.169 343.542 170.336 339.004 172C331.776 172.154 324.776 170.82 318.004 168C308.337 169.203 304.837 165.036 307.504 155.5C310.543 147.086 314.877 139.42 320.504 132.5C323.638 126.568 326.472 120.568 329.004 114.5Z" fill="#545454"/>
<path fill-rule="evenodd" clip-rule="evenodd" d="M590.004 114.5C599.897 124.87 608.397 136.536 615.504 149.5C616.259 152.303 615.926 154.97 614.504 157.5C612.592 159.657 610.925 161.991 609.504 164.5C608.185 166.487 606.352 167.654 604.004 168C599.337 168.667 594.671 168.667 590.004 168C586.061 163.945 582.728 159.445 580.004 154.5C588.667 150.672 590.001 145.172 584.004 138C581.46 136.908 578.793 136.241 576.004 136C574.543 133.579 573.21 131.079 572.004 128.5C577.165 122.663 583.165 117.996 590.004 114.5Z" fill="#54423D"/>
<path fill-rule="evenodd" clip-rule="evenodd" d="M205.004 119.5C226.563 119.856 247.897 122.189 269.004 126.5C265.274 139.007 263.607 151.841 264.004 165C264.171 169.833 264.337 174.667 264.504 179.5C264.694 183.076 265.861 186.242 268.004 189C273.004 189.667 278.004 189.667 283.004 189C302.473 185.031 322.14 183.531 342.004 184.5C342.246 207.494 344.913 230.161 350.004 252.5C334.897 251.57 319.897 249.737 305.004 247C290.246 242.977 275.58 238.644 261.004 234C248.358 230.84 235.691 228.006 223.004 225.5C228.693 214.458 232.36 202.792 234.004 190.5C233.179 189.614 232.179 189.281 231.004 189.5C229.759 202.235 226.093 214.235 220.004 225.5C215.819 230.518 211.153 235.018 206.004 239C196.17 244.749 186.503 250.749 177.004 257C155.905 278.086 137.072 300.919 120.504 325.5C112.116 342.06 109.783 359.394 113.504 377.5C115.281 381.904 118.114 385.404 122.004 388C117.84 390.832 113.34 392.999 108.504 394.5C104.193 388.855 99.193 383.855 93.504 379.5C91.259 376.119 90.592 372.452 91.504 368.5C100.828 342.873 107.161 316.539 110.504 289.5C111.171 288.167 111.837 286.833 112.504 285.5C119.536 278.803 126.202 271.803 132.504 264.5C139.665 254.285 141.999 242.952 139.504 230.5C136.342 212.904 135.675 195.237 137.504 177.5C144.822 140.34 167.322 121.007 205.004 119.5Z" fill="#54423D"/>
<path fill-rule="evenodd" clip-rule="evenodd" d="M316.004 121.5C318.428 121.192 320.761 121.526 323.004 122.5C317.756 131.998 312.256 141.331 306.504 150.5C304.998 155.746 304.665 161.079 305.504 166.5C306.337 167.333 307.171 168.167 308.004 169C315.19 169.839 322.19 171.505 329.004 174C332.99 174.499 336.99 174.666 341.004 174.5C341.004 177.167 341.004 179.833 341.004 182.5C329.999 182.333 318.999 182.5 308.004 183C296.844 184.554 285.678 186.054 274.504 187.5C272.41 187.464 270.41 187.131 268.504 186.5C266.968 172.203 266.635 157.87 267.504 143.5C268.058 138.284 269.391 133.284 271.504 128.5C273.337 127.333 275.171 126.167 277.004 125C290.22 124.562 303.22 123.396 316.004 121.5Z" fill="#5853FF"/>
<path fill-rule="evenodd" clip-rule="evenodd" d="M148.004 125.5C155.012 125.334 162.012 125.5 169.004 126C153.339 136.004 142.506 149.837 136.504 167.5C132.189 168.941 128.022 170.774 124.004 173C116.256 180.752 107.923 187.752 99.0039 194C89.2909 198.611 79.2909 199.611 69.0039 197C73.8859 193.786 77.7189 189.619 80.5039 184.5C81.0649 181.702 79.8979 179.869 77.0039 179C72.8929 178.059 68.7259 177.559 64.5039 177.5C51.5649 179.249 38.7309 178.749 26.0039 176C15.7045 173.368 8.03781 167.368 3.00391 158C5.13331 156.897 7.46661 156.397 10.0039 156.5C22.9248 158.741 35.9248 159.574 49.0039 159C51.3819 158.489 53.7159 157.822 56.0039 157C60.7319 153.274 65.7319 149.941 71.0039 147C86.3969 145.178 101.73 142.844 117.004 140C127.428 135.118 137.761 130.285 148.004 125.5Z" fill="#362824"/>
<path fill-rule="evenodd" clip-rule="evenodd" d="M546.004 136.5C548.474 136.027 550.808 136.861 553.004 139C550.541 138.78 548.208 137.946 546.004 136.5Z" fill="black"/>
<path fill-rule="evenodd" clip-rule="evenodd" d="M576.004 141.5C582.508 141.138 584.175 143.638 581.004 149C575.289 149.401 573.623 146.901 576.004 141.5Z" fill="black"/>
<path fill-rule="evenodd" clip-rule="evenodd" d="M339.004 141.5C339.315 146.966 339.315 152.633 339.004 158.5C335.879 158.135 332.879 157.302 330.004 156C334.013 151.828 337.013 146.994 339.004 141.5Z" fill="#54423D"/>
<path fill-rule="evenodd" clip-rule="evenodd" d="M603.004 146.5C607.043 145.66 610.043 146.993 612.004 150.5C611.671 150.833 611.337 151.167 611.004 151.5C608.419 148.136 605.586 147.803 602.504 150.5C601.837 153.5 601.837 156.5 602.504 159.5C604.42 160.928 606.587 161.928 609.004 162.5C602.43 164.936 599.096 162.602 599.004 155.5C599.19 151.923 600.524 148.923 603.004 146.5Z" fill="black"/>
<path fill-rule="evenodd" clip-rule="evenodd" d="M137.004 242.5C137.874 246.457 137.374 250.457 135.504 254.5C129.337 264.675 121.671 273.675 112.504 281.5C109.367 286.108 107.034 291.108 105.504 296.5C93.1238 304.546 83.1238 314.879 75.5038 327.5C72.6708 330.333 69.8368 333.167 67.0038 336C58.7308 338.023 50.7308 340.856 43.0038 344.5C39.6548 340.071 38.3208 335.071 39.0038 329.5C42.7768 329.737 46.4438 329.237 50.0038 328C60.1348 320.203 69.3008 311.37 77.5038 301.5C84.5038 291.167 91.5038 280.833 98.5038 270.5C105.203 262.895 113.369 257.395 123.004 254C128.151 250.68 132.818 246.847 137.004 242.5Z" fill="#54423D"/>
<path fill-rule="evenodd" clip-rule="evenodd" d="M419.004 254.5C423.018 254.334 427.018 254.501 431.004 255C440.068 256.621 449.068 258.454 458.004 260.5C456.144 281.072 458.644 301.072 465.504 320.5C472.038 338.436 478.371 356.436 484.504 374.5C488.525 380.859 494.025 385.359 501.004 388C495.058 390.306 489.392 393.139 484.004 396.5C480.393 394.777 477.226 392.444 474.504 389.5C468.564 377.286 462.897 364.953 457.504 352.5C453.837 347.5 450.171 342.5 446.504 337.5C440.829 308.642 431.662 280.975 419.004 254.5Z" fill="#54423D"/>
<path fill-rule="evenodd" clip-rule="evenodd" d="M592.004 325.5C594.407 325.393 596.24 326.393 597.504 328.5C598.584 330.996 599.918 333.33 601.504 335.5C602.253 336.635 602.087 337.635 601.004 338.5C595.056 339.624 589.056 339.79 583.004 339C578.528 337.75 577.528 335.416 580.004 332C584.029 329.727 588.029 327.561 592.004 325.5Z" fill="#362824"/>
<path fill-rule="evenodd" clip-rule="evenodd" d="M32.0039 329.5C33.3372 329.5 34.6706 329.5 36.0039 329.5C36.5159 335.368 37.8499 341.035 40.0039 346.5C36.1125 347.806 32.1125 348.806 28.0039 349.5C26.7323 349.43 25.5656 349.097 24.5039 348.5C24.766 341.305 27.266 334.972 32.0039 329.5Z" fill="#362824"/>
<path fill-rule="evenodd" clip-rule="evenodd" d="M503.004 389.5C508.012 389.168 511.012 391.502 512.004 396.5C511.628 398.383 510.628 399.883 509.004 401C503.337 401.667 497.671 401.667 492.004 401C489.886 400.74 488.22 399.74 487.004 398C491.987 394.344 497.32 391.511 503.004 389.5Z" fill="#362824"/>
<path fill-rule="evenodd" clip-rule="evenodd" d="M124.004 389.5C130.07 391.17 132.737 395.003 132.004 401C124.424 401.813 116.924 401.647 109.504 400.5C109.004 399.5 108.504 398.5 108.004 397.5C113.905 395.768 119.238 393.102 124.004 389.5Z" fill="#362824"/>
</svg>
