<svg width="621" height="405" viewBox="0 0 621 405" fill="none" xmlns="http://www.w3.org/2000/svg">
<path fill-rule="evenodd" clip-rule="evenodd" d="M497.5 0.500001C500.571 -0.0754992 502.571 1.0912 503.5 4C496.598 20.8738 489.598 37.707 482.5 54.5C487.176 54.345 492.009 54.678 497 55.5C504.677 53.829 512.344 52.162 520 50.5C523.48 50.452 526.813 51.119 530 52.5C530.5 52.167 531 51.833 531.5 51.5C530.456 49.232 530.289 46.899 531 44.5C534.6 41.646 537.6 42.313 540 46.5C541.667 48.833 543.333 51.167 545 53.5C545.562 48.917 546.895 44.583 549 40.5C550.049 39.483 551.216 39.316 552.5 40C555.076 47.318 558.576 54.151 563 60.5C566.387 63.553 570.053 66.22 574 68.5C578.702 76.228 583.035 84.228 587 92.5C592.698 109.202 601.365 124.202 613 137.5C616.045 142.258 618.545 147.258 620.5 152.5C617.869 159.293 613.869 165.127 608.5 170C601.489 173.253 594.489 173.253 587.5 170C583.388 165.609 579.888 160.776 577 155.5C573.833 153.667 571.333 151.167 569.5 148C565.196 146.894 560.863 145.894 556.5 145C549.833 141.667 543.167 138.333 536.5 135C526.201 133.318 517.201 135.985 509.5 143C500.949 151.186 492.115 159.019 483 166.5C481.25 169.246 480.25 172.246 480 175.5C479.51 184.18 478.844 192.847 478 201.5C476.532 207.27 474.366 212.77 471.5 218C474.683 224.192 479.016 229.525 484.5 234C511.355 245.759 534.688 262.425 554.5 284C559.833 288 565.167 292 570.5 296C574.595 299.704 578.095 303.871 581 308.5C586.956 314.636 593.29 320.302 600 325.5C603.407 329.628 605.074 334.295 605 339.5C604.097 340.701 602.931 341.535 601.5 342C594.086 342.89 586.753 342.557 579.5 341C575.455 336.418 572.289 331.251 570 325.5C565.666 321.047 560.499 317.88 554.5 316C550.376 310.923 546.876 305.423 544 299.5C540.799 295.964 537.299 292.797 533.5 290C523.673 284.92 514.006 279.587 504.5 274C490.278 269.695 475.945 265.861 461.5 262.5C460.919 276.991 462.086 291.324 465 305.5C472.264 325.624 478.93 345.958 485 366.5C486.958 371.59 489.792 376.09 493.5 380C499.299 383.047 505.299 385.714 511.5 388C516.743 393.409 516.743 398.742 511.5 404C501.769 404.192 492.103 404.359 482.5 404.5C482.5 403.5 482.5 402.5 482.5 401.5C483.552 401.649 484.552 401.483 485.5 401C479.754 398.247 474.921 394.414 471 389.5C466.333 378.833 461.667 368.167 457 357.5C451.941 350.772 447.274 343.772 443 336.5C438.122 308.033 428.955 281.033 415.5 255.5C414.5 255.167 413.5 254.833 412.5 254.5C404.535 255.663 396.535 256.496 388.5 257C385.874 259.146 382.874 260.479 379.5 261C373.833 261.667 368.167 261.667 362.5 261C358.952 260.559 355.952 259.059 353.5 256.5C336.744 255.027 320.077 252.86 303.5 250C286.5 245 269.5 240 252.5 235C241.663 231.794 230.663 230.628 219.5 231.5C216.647 235.187 213.314 238.353 209.5 241C197.826 247.835 186.493 255.168 175.5 263C155.383 283.773 137.549 306.273 122 330.5C114.875 346.889 113.875 363.555 119 380.5C123.645 384.655 128.645 388.322 134 391.5C135.863 395.649 137.03 399.982 137.5 404.5C127.828 404.666 118.161 404.5 108.5 404C106.485 400.305 104.651 396.472 103 392.5C98.7209 388.221 94.3869 383.887 89.9999 379.5C88.5429 375.259 88.2089 370.926 88.9999 366.5C97.5229 345.418 102.69 323.751 104.5 301.5C93.1649 310.191 83.6649 320.524 75.9999 332.5C70.5679 339.429 63.4009 342.929 54.4999 343C47.3839 346.559 40.0509 349.559 32.4999 352C28.7558 352.929 25.2558 352.429 21.9999 350.5C21.6872 342.105 24.1872 334.605 29.4999 328C31.8999 326.299 34.5665 325.466 37.4999 325.5C40.5029 326.138 43.5029 326.305 46.4999 326C56.2249 319.281 65.0579 311.448 72.9999 302.5C80.2469 292.34 87.2469 282.006 93.9999 271.5C101.718 261.546 111.551 254.379 123.5 250C128.286 246.882 132.786 243.382 137 239.5C135.476 224.731 134.309 209.897 133.5 195C133.488 187.425 134.155 179.925 135.5 172.5C131.396 172.884 127.729 174.384 124.5 177C115.924 186.583 105.924 194.249 94.4999 200C85.4279 203.067 76.4279 203.067 67.4999 200C66.4259 199.261 65.7589 198.261 65.4999 197C69.2669 193.233 73.0999 189.4 76.9999 185.5C77.6839 184.216 77.5169 183.049 76.4999 182C62.1669 181.667 47.8329 181.333 33.4999 181C21.7589 179.38 11.9256 174.214 3.99989 165.5C2.15959 163.319 0.992993 160.819 0.499893 158C0.439193 156.289 1.10579 154.956 2.49989 154C15.39 153.714 28.2233 154.548 40.9999 156.5C44.8879 156.406 48.7209 155.906 52.4999 155C58.4999 151.333 64.4999 147.667 70.4999 144C84.4099 141.472 98.4099 139.472 112.5 138C125.167 132.667 137.833 127.333 150.5 122C158.07 121.326 165.57 121.826 173 123.5C186.178 118.569 199.845 116.235 214 116.5C233.043 117.19 251.877 119.523 270.5 123.5C288.152 121.778 305.818 119.778 323.5 117.5C325.498 116.033 327.164 114.2 328.5 112C316.316 109.939 304.65 106.272 293.5 101C283.726 94.36 280.226 85.193 283 73.5C286.643 64.388 292.143 56.555 299.5 50C304.146 48.746 307.812 46.08 310.5 42C317.358 37.907 324.691 34.907 332.5 33C342.5 32.667 352.5 32.333 362.5 32C367.198 29.651 371.864 27.318 376.5 25C380.225 24.2401 383.892 24.4068 387.5 25.5C391.285 19.8809 395.951 15.0476 401.5 11C416.844 6.9235 427.678 12.0902 434 26.5C434.671 31.2 435.504 35.866 436.5 40.5C441.611 42.629 441.778 44.962 437 47.5C434.451 46.481 431.951 46.481 429.5 47.5C428.826 49.517 427.659 51.183 426 52.5C425.934 56.233 425.101 59.733 423.5 63C418.522 63.326 414.022 64.826 410 67.5C407.793 66.97 405.793 65.97 404 64.5C405.07 67.212 407.237 69.045 410.5 70C418.677 70.592 426.844 70.425 435 69.5C440.793 70.657 446.627 71.157 452.5 71C457.636 65.624 463.969 62.79 471.5 62.5C479.648 41.547 488.314 20.8807 497.5 0.500001Z" fill="black"/>
<path fill-rule="evenodd" clip-rule="evenodd" d="M497.5 8.5C497.491 6.6916 497.991 5.0249 499 3.5C499.599 5.5348 499.099 7.2015 497.5 8.5Z" fill="#FFDC00"/>
<path fill-rule="evenodd" clip-rule="evenodd" d="M497.5 8.5C497.598 10.5529 496.931 12.2196 495.5 13.5C495.402 11.4471 496.069 9.7804 497.5 8.5Z" fill="#FFDC00"/>
<path fill-rule="evenodd" clip-rule="evenodd" d="M405.5 12.5C418.283 11.1358 426.783 16.4691 431 28.5C431.715 33.4 432.548 38.233 433.5 43C428.877 42.854 424.21 42.52 419.5 42C411.224 39.846 402.891 38.179 394.5 37C390.086 36.252 388.586 33.752 390 29.5C392.936 21.7339 398.102 16.0672 405.5 12.5Z" fill="#414051"/>
<path fill-rule="evenodd" clip-rule="evenodd" d="M495.5 13.5C495.509 15.3084 495.009 16.9751 494 18.5C493.401 16.4652 493.901 14.7985 495.5 13.5Z" fill="#FFDC00"/>
<path fill-rule="evenodd" clip-rule="evenodd" d="M490.5 25.5C490.491 23.6916 490.991 22.0249 492 20.5C492.599 22.5348 492.099 24.2015 490.5 25.5Z" fill="#FFDC00"/>
<path fill-rule="evenodd" clip-rule="evenodd" d="M490.5 25.5C490.598 27.553 489.931 29.22 488.5 30.5C488.402 28.447 489.069 26.7804 490.5 25.5Z" fill="#FFDC00"/>
<path fill-rule="evenodd" clip-rule="evenodd" d="M377.5 27.5C380.881 27.46 384.214 27.793 387.5 28.5C386.715 32.596 387.882 35.93 391 38.5C393.509 48.504 396.843 58.171 401 67.5C404.297 70.567 408.131 72.733 412.5 74C422.485 73.62 432.485 73.62 442.5 74C444.903 79.288 445.069 84.788 443 90.5C441.933 91.191 440.766 91.691 439.5 92C432.036 92.682 424.703 94.016 417.5 96C414.5 96.667 411.5 96.667 408.5 96C398.888 91.861 389.554 87.194 380.5 82C375.562 77.736 371.395 72.903 368 67.5C367.5 67.833 367 68.167 366.5 68.5C370.063 76.064 375.396 82.064 382.5 86.5C378.393 90.545 373.393 92.879 367.5 93.5C362.377 89.766 357.043 86.266 351.5 83C340.725 78.89 329.725 75.557 318.5 73C316.083 71.337 314.25 69.171 313 66.5C310.856 60.268 309.523 53.935 309 47.5C324.379 36.049 341.545 32.215 360.5 36C366.506 33.663 372.173 30.83 377.5 27.5Z" fill="#FF2C9B"/>
<path fill-rule="evenodd" clip-rule="evenodd" d="M488.5 30.5C488.598 32.553 487.931 34.22 486.5 35.5C486.402 33.447 487.069 31.78 488.5 30.5Z" fill="#FFDC00"/>
<path fill-rule="evenodd" clip-rule="evenodd" d="M486.5 35.5C486.598 37.553 485.931 39.22 484.5 40.5C484.402 38.447 485.069 36.78 486.5 35.5Z" fill="#FFDC00"/>
<path fill-rule="evenodd" clip-rule="evenodd" d="M394.5 39.5C400.077 39.525 405.411 40.692 410.5 43C401.574 55.453 396.24 54.286 394.5 39.5Z" fill="#685C59"/>
<path fill-rule="evenodd" clip-rule="evenodd" d="M484.5 40.5C484.293 43.241 483.293 45.574 481.5 47.5C481.707 44.759 482.707 42.426 484.5 40.5Z" fill="#FFDC00"/>
<path fill-rule="evenodd" clip-rule="evenodd" d="M412.5 43.5C417.356 43.763 422.023 44.763 426.5 46.5C425.185 48.316 423.685 49.983 422 51.5C421.503 54.146 421.336 56.813 421.5 59.5C416.698 59.361 412.698 61.027 409.5 64.5C406.731 62.394 403.731 60.727 400.5 59.5C399.833 57.833 399.167 56.167 398.5 54.5C404.897 53.11 409.564 49.443 412.5 43.5Z" fill="#FFDC00"/>
<path fill-rule="evenodd" clip-rule="evenodd" d="M550.5 44.5C552.744 49.48 555.41 54.314 558.5 59C553.005 60.303 549.671 58.303 548.5 53C549.093 50.13 549.759 47.297 550.5 44.5Z" fill="#101210"/>
<path fill-rule="evenodd" clip-rule="evenodd" d="M534.5 46.5C538.17 49.981 541.503 53.814 544.5 58C549.236 60.435 554.236 62.101 559.5 63C561.5 64.333 563.5 65.667 565.5 67C557.615 69.522 550.782 73.689 545 79.5C542.275 72.384 539.275 65.384 536 58.5C534.985 54.56 534.485 50.56 534.5 46.5Z" fill="#101210"/>
<path fill-rule="evenodd" clip-rule="evenodd" d="M481.5 47.5C481.598 49.553 480.931 51.22 479.5 52.5C479.402 50.447 480.069 48.78 481.5 47.5Z" fill="#FFDC00"/>
<path fill-rule="evenodd" clip-rule="evenodd" d="M302.5 51.5C303.978 51.238 305.311 51.571 306.5 52.5C307.844 57.54 309.344 62.54 311 67.5C311.883 70.102 313.383 72.269 315.5 74C326.15 77.332 336.817 80.665 347.5 84C355.366 86.828 361.533 91.662 366 98.5C366.667 100.5 366.667 102.5 366 104.5C361.586 111.334 356.253 117.334 350 122.5C345.418 118.455 340.251 115.289 334.5 113C333.743 111.488 332.743 110.154 331.5 109C315.964 107.379 301.798 102.212 289 93.5C283.864 83.457 284.531 73.791 291 64.5C294.67 59.998 298.503 55.665 302.5 51.5Z" fill="#862558"/>
<path fill-rule="evenodd" clip-rule="evenodd" d="M479.5 52.5C479.598 54.553 478.931 56.22 477.5 57.5C477.402 55.447 478.069 53.78 479.5 52.5Z" fill="#FFDC00"/>
<path fill-rule="evenodd" clip-rule="evenodd" d="M516.5 53.5C522.35 53.502 527.85 54.836 533 57.5C534.009 59.025 534.509 60.692 534.5 62.5C515.805 64.198 497.638 68.198 480 74.5C475.139 65.547 477.972 59.881 488.5 57.5C498.383 59.353 507.716 58.02 516.5 53.5Z" fill="#362824"/>
<path fill-rule="evenodd" clip-rule="evenodd" d="M477.5 57.5C476.91 62.005 475.243 66.005 472.5 69.5C472.167 69.333 471.833 69.167 471.5 69C473.672 65.153 475.672 61.319 477.5 57.5Z" fill="#FFDC00"/>
<path fill-rule="evenodd" clip-rule="evenodd" d="M529.5 64.5C531.833 64.5 534.167 64.5 536.5 64.5C535.008 71.885 536.175 78.885 540 85.5C549.32 103.835 559.32 121.502 570 138.5C537.601 121.082 507.101 100.916 478.5 78C482.505 75.578 486.838 73.911 491.5 73C504.2 69.696 516.867 66.863 529.5 64.5Z" fill="#101210"/>
<path fill-rule="evenodd" clip-rule="evenodd" d="M461.5 67.5C464.247 67.187 466.914 67.52 469.5 68.5C465.572 69.985 461.572 70.818 457.5 71C458.731 69.595 460.064 68.429 461.5 67.5Z" fill="#362824"/>
<path fill-rule="evenodd" clip-rule="evenodd" d="M565.5 69.5C567.199 69.34 568.866 69.506 570.5 70C564.985 72.923 559.318 75.59 553.5 78C551.65 80.018 549.65 81.851 547.5 83.5C546.417 82.635 546.251 81.635 547 80.5C552.406 75.434 558.573 71.767 565.5 69.5Z" fill="#FF2C9B"/>
<path fill-rule="evenodd" clip-rule="evenodd" d="M466.5 71.5C469.881 71.46 473.214 71.793 476.5 72.5C476.762 77.476 474.762 81.309 470.5 84C466.349 84.143 462.182 83.977 458 83.5C454.483 83.358 451.15 84.024 448 85.5C447.5 85.333 447 85.167 446.5 85C447.799 81.865 447.799 78.699 446.5 75.5C450.796 74.672 455.129 74.172 459.5 74C462.004 73.302 464.337 72.469 466.5 71.5Z" fill="#FFDC00"/>
<path fill-rule="evenodd" clip-rule="evenodd" d="M568.5 73.5C569.873 73.343 571.207 73.51 572.5 74C579.54 83.58 584.874 94.08 588.5 105.5C580.731 108.604 573.731 112.938 567.5 118.5C561.167 107.833 554.833 97.167 548.5 86.5C549.982 84.517 551.649 82.684 553.5 81C558.592 78.454 563.592 75.954 568.5 73.5Z" fill="#101210"/>
<path fill-rule="evenodd" clip-rule="evenodd" d="M476.5 80.5C493.287 92.114 509.954 103.947 526.5 116C540.669 124.586 555.003 132.919 569.5 141C570.731 142.183 570.731 143.349 569.5 144.5C536.629 127.242 505.629 107.242 476.5 84.5C475.374 83.192 475.374 81.858 476.5 80.5Z" fill="#FF2C9B"/>
<path fill-rule="evenodd" clip-rule="evenodd" d="M453.5 85.5C456.167 85.5 458.833 85.5 461.5 85.5C460.608 89.789 459.275 93.956 457.5 98C457.645 98.772 457.978 99.439 458.5 100C460.167 100.667 461.833 100.667 463.5 100C464.941 95.685 466.774 91.518 469 87.5C470.599 85.964 472.433 85.464 474.5 86C496.791 103.482 520.125 119.482 544.5 134C539.72 132.39 534.72 131.223 529.5 130.5C522.503 131.332 516.17 133.832 510.5 138C500.667 146.5 490.833 155 481 163.5C478.685 166.777 477.351 170.444 477 174.5C476.078 184.181 475.078 193.848 474 203.5C472.891 207.719 471.225 211.719 469 215.5C459.803 203.975 448.303 195.475 434.5 190C433.365 189.251 432.365 189.417 431.5 190.5C441.099 194.969 450.099 200.469 458.5 207C465.099 213.701 470.599 221.201 475 229.5C477.167 231.667 479.333 233.833 481.5 236C494.662 243.08 507.662 250.413 520.5 258C533.095 267.924 545.095 278.591 556.5 290C565.955 295.788 573.788 303.288 580 312.5C583.581 316.752 587.748 320.252 592.5 323C587.093 325.452 581.926 328.286 577 331.5C573.69 322.193 567.19 316.36 557.5 314C552.714 308.265 548.548 302.099 545 295.5C543.5 294 542 292.5 540.5 291C524.815 279.982 507.815 271.648 489.5 266C473.275 261.527 456.942 257.527 440.5 254C432.927 252.293 425.26 251.46 417.5 251.5C405.539 252.995 393.539 253.495 381.5 253C376.568 250.314 373.735 246.148 373 240.5C368.564 218.181 365.731 195.681 364.5 173C364.667 167.167 364.833 161.333 365 155.5C368.467 140.104 372.133 124.771 376 109.5C399.27 107.391 421.77 101.891 443.5 93C445.966 89.275 449.299 86.775 453.5 85.5Z" fill="#101210"/>
<path fill-rule="evenodd" clip-rule="evenodd" d="M538.5 71.5C550.593 93.742 562.426 116.076 574 138.5C561.737 120.318 550.737 101.318 541 81.5C539.273 78.382 538.439 75.049 538.5 71.5Z" fill="#FF2C9B"/>
<path fill-rule="evenodd" clip-rule="evenodd" d="M385.5 88.5C389.14 90.32 392.807 92.153 396.5 94C395.833 94.667 395.167 95.333 394.5 96C389.614 97.224 384.614 97.891 379.5 98C377.464 98.454 375.63 99.287 374 100.5C372.225 99.73 370.725 98.563 369.5 97C374.285 95.401 378.952 93.401 383.5 91C384.381 90.292 385.047 89.458 385.5 88.5Z" fill="#FFDC00"/>
<path fill-rule="evenodd" clip-rule="evenodd" d="M464.5 86.5C465.239 86.369 465.906 86.536 466.5 87C464.856 90.937 463.023 94.77 461 98.5C461.264 94.287 462.43 90.287 464.5 86.5Z" fill="#FFDC00"/>
<path fill-rule="evenodd" clip-rule="evenodd" d="M410.5 98.5C411.833 99.167 413.167 99.833 414.5 100.5C402.027 104.044 389.36 105.711 376.5 105.5C375.332 104.094 375.665 102.928 377.5 102C382.867 101.597 388.201 100.93 393.5 100C396.173 98.999 398.507 97.499 400.5 95.5C403.68 97.095 407.013 98.095 410.5 98.5Z" fill="#362824"/>
<path fill-rule="evenodd" clip-rule="evenodd" d="M414.5 100.5C413.167 99.833 411.833 99.167 410.5 98.5C414.525 98.184 418.525 98.017 422.5 98C419.92 99.144 417.253 99.978 414.5 100.5Z" fill="#362824"/>
<path fill-rule="evenodd" clip-rule="evenodd" d="M369.5 102.5C372.508 103.848 373.841 106.182 373.5 109.5C369.197 125.712 365.364 142.045 362 158.5C361.33 188.486 364.83 217.986 372.5 247C374.37 252.113 378.036 255.113 383.5 256C374.86 259.176 366.193 259.176 357.5 256C353.491 251.99 350.991 247.157 350 241.5C347.043 218.56 345.043 195.56 344 172.5C348.792 167.848 348.625 163.514 343.5 159.5C340.603 147.984 342.77 137.651 350 128.5C353.466 123.014 357.799 118.014 363 113.5C365.682 110.135 367.849 106.469 369.5 102.5Z" fill="#FFDC00"/>
<path fill-rule="evenodd" clip-rule="evenodd" d="M586.5 108.5C589.022 108.128 591.022 108.961 592.5 111C584.729 114.967 577.562 119.8 571 125.5C570.044 124.421 569.211 123.255 568.5 122C573.835 116.482 579.835 111.982 586.5 108.5Z" fill="#FF2C9B"/>
<path fill-rule="evenodd" clip-rule="evenodd" d="M329.5 114.5C335.783 115.808 341.45 118.474 346.5 122.5C347.415 123.328 348.081 124.328 348.5 125.5C342.013 133.498 336.513 142.165 332 151.5C330.104 152.68 328.604 154.18 327.5 156C327.82 157.653 328.82 158.653 330.5 159C335.103 159.892 339.603 161.059 344 162.5C345.538 167.169 344.038 170.336 339.5 172C332.272 172.154 325.272 170.82 318.5 168C308.833 169.203 305.333 165.036 308 155.5C311.039 147.086 315.373 139.42 321 132.5C324.134 126.568 326.968 120.568 329.5 114.5Z" fill="#545454"/>
<path fill-rule="evenodd" clip-rule="evenodd" d="M590.5 114.5C600.393 124.87 608.893 136.536 616 149.5C616.755 152.303 616.422 154.97 615 157.5C613.088 159.657 611.421 161.991 610 164.5C608.681 166.487 606.848 167.654 604.5 168C599.833 168.667 595.167 168.667 590.5 168C586.557 163.945 583.224 159.445 580.5 154.5C589.163 150.672 590.497 145.172 584.5 138C581.956 136.908 579.289 136.241 576.5 136C575.039 133.579 573.706 131.079 572.5 128.5C577.661 122.663 583.661 117.996 590.5 114.5Z" fill="#101210"/>
<path fill-rule="evenodd" clip-rule="evenodd" d="M205.5 119.5C227.059 119.856 248.393 122.189 269.5 126.5C265.77 139.007 264.103 151.841 264.5 165C264.667 169.833 264.833 174.667 265 179.5C265.19 183.076 266.357 186.242 268.5 189C273.5 189.667 278.5 189.667 283.5 189C302.969 185.031 322.636 183.531 342.5 184.5C342.742 207.494 345.409 230.161 350.5 252.5C335.393 251.57 320.393 249.737 305.5 247C290.742 242.977 276.076 238.644 261.5 234C248.854 230.84 236.187 228.006 223.5 225.5C229.189 214.458 232.856 202.792 234.5 190.5C233.675 189.614 232.675 189.281 231.5 189.5C230.255 202.235 226.589 214.235 220.5 225.5C216.315 230.518 211.649 235.018 206.5 239C196.666 244.749 186.999 250.749 177.5 257C156.401 278.086 137.568 300.919 121 325.5C112.612 342.06 110.279 359.394 114 377.5C115.777 381.904 118.61 385.404 122.5 388C118.336 390.832 113.836 392.999 109 394.5C104.689 388.855 99.6891 383.855 94.0001 379.5C91.7551 376.119 91.0881 372.452 92.0001 368.5C101.324 342.873 107.657 316.539 111 289.5C111.667 288.167 112.333 286.833 113 285.5C120.032 278.803 126.698 271.803 133 264.5C140.161 254.285 142.495 242.952 140 230.5C136.838 212.904 136.171 195.237 138 177.5C145.318 140.34 167.818 121.007 205.5 119.5Z" fill="#101210"/>
<path fill-rule="evenodd" clip-rule="evenodd" d="M316.5 121.5C318.924 121.192 321.257 121.526 323.5 122.5C318.252 131.998 312.752 141.331 307 150.5C305.494 155.746 305.161 161.079 306 166.5C306.833 167.333 307.667 168.167 308.5 169C315.686 169.839 322.686 171.505 329.5 174C333.486 174.499 337.486 174.666 341.5 174.5C341.5 177.167 341.5 179.833 341.5 182.5C330.495 182.333 319.495 182.5 308.5 183C297.34 184.554 286.174 186.054 275 187.5C272.906 187.464 270.906 187.131 269 186.5C267.464 172.203 267.131 157.87 268 143.5C268.554 138.284 269.887 133.284 272 128.5C273.833 127.333 275.667 126.167 277.5 125C290.716 124.562 303.716 123.396 316.5 121.5Z" fill="#FF2C9B"/>
<path fill-rule="evenodd" clip-rule="evenodd" d="M148.5 125.5C155.508 125.334 162.508 125.5 169.5 126C153.835 136.004 143.002 149.837 137 167.5C132.685 168.941 128.518 170.774 124.5 173C116.752 180.752 108.419 187.752 99.5 194C89.787 198.611 79.787 199.611 69.5 197C74.382 193.786 78.215 189.619 81 184.5C81.561 181.702 80.394 179.869 77.5 179C73.389 178.059 69.222 177.559 65 177.5C52.061 179.249 39.227 178.749 26.5 176C16.2006 173.368 8.5339 167.368 3.5 158C5.6294 156.897 7.9627 156.397 10.5 156.5C23.4209 158.741 36.4209 159.574 49.5 159C51.878 158.489 54.212 157.822 56.5 157C61.228 153.274 66.228 149.941 71.5 147C86.893 145.178 102.226 142.844 117.5 140C127.924 135.118 138.257 130.285 148.5 125.5Z" fill="#362824"/>
<path fill-rule="evenodd" clip-rule="evenodd" d="M546.5 136.5C548.97 136.027 551.304 136.861 553.5 139C551.037 138.78 548.704 137.946 546.5 136.5Z" fill="black"/>
<path fill-rule="evenodd" clip-rule="evenodd" d="M576.5 141.5C583.004 141.138 584.671 143.638 581.5 149C575.785 149.401 574.119 146.901 576.5 141.5Z" fill="black"/>
<path fill-rule="evenodd" clip-rule="evenodd" d="M339.5 141.5C339.811 146.966 339.811 152.633 339.5 158.5C336.375 158.135 333.375 157.302 330.5 156C334.509 151.828 337.509 146.994 339.5 141.5Z" fill="#101210"/>
<path fill-rule="evenodd" clip-rule="evenodd" d="M603.5 146.5C607.539 145.66 610.539 146.993 612.5 150.5C612.167 150.833 611.833 151.167 611.5 151.5C608.915 148.136 606.082 147.803 603 150.5C602.333 153.5 602.333 156.5 603 159.5C604.916 160.928 607.083 161.928 609.5 162.5C602.926 164.936 599.592 162.602 599.5 155.5C599.686 151.923 601.02 148.923 603.5 146.5Z" fill="black"/>
<path fill-rule="evenodd" clip-rule="evenodd" d="M137.5 242.5C138.37 246.457 137.87 250.457 136 254.5C129.833 264.675 122.167 273.675 113 281.5C109.863 286.108 107.53 291.108 106 296.5C93.6199 304.546 83.6199 314.879 75.9999 327.5C73.1669 330.333 70.3329 333.167 67.4999 336C59.2269 338.023 51.2269 340.856 43.4999 344.5C40.1509 340.071 38.8169 335.071 39.4999 329.5C43.2729 329.737 46.9399 329.237 50.4999 328C60.6309 320.203 69.7969 311.37 77.9999 301.5C84.9999 291.167 91.9999 280.833 98.9999 270.5C105.699 262.895 113.865 257.395 123.5 254C128.647 250.68 133.314 246.847 137.5 242.5Z" fill="#101210"/>
<path fill-rule="evenodd" clip-rule="evenodd" d="M419.5 254.5C423.514 254.334 427.514 254.501 431.5 255C440.564 256.621 449.564 258.454 458.5 260.5C456.64 281.072 459.14 301.072 466 320.5C472.534 338.436 478.867 356.436 485 374.5C489.021 380.859 494.521 385.359 501.5 388C495.554 390.306 489.888 393.139 484.5 396.5C480.889 394.777 477.722 392.444 475 389.5C469.06 377.286 463.393 364.953 458 352.5C454.333 347.5 450.667 342.5 447 337.5C441.325 308.642 432.158 280.975 419.5 254.5Z" fill="#101210"/>
<path fill-rule="evenodd" clip-rule="evenodd" d="M592.5 325.5C594.903 325.393 596.736 326.393 598 328.5C599.08 330.996 600.414 333.33 602 335.5C602.749 336.635 602.583 337.635 601.5 338.5C595.552 339.624 589.552 339.79 583.5 339C579.024 337.75 578.024 335.416 580.5 332C584.525 329.727 588.525 327.561 592.5 325.5Z" fill="#362824"/>
<path fill-rule="evenodd" clip-rule="evenodd" d="M32.5 329.5C33.8333 329.5 35.1667 329.5 36.5 329.5C37.012 335.368 38.346 341.035 40.5 346.5C36.6086 347.806 32.6086 348.806 28.5 349.5C27.2284 349.43 26.0617 349.097 25 348.5C25.2621 341.305 27.7621 334.972 32.5 329.5Z" fill="#362824"/>
<path fill-rule="evenodd" clip-rule="evenodd" d="M503.5 389.5C508.508 389.168 511.508 391.502 512.5 396.5C512.124 398.383 511.124 399.883 509.5 401C503.833 401.667 498.167 401.667 492.5 401C490.382 400.74 488.716 399.74 487.5 398C492.483 394.344 497.816 391.511 503.5 389.5Z" fill="#362824"/>
<path fill-rule="evenodd" clip-rule="evenodd" d="M124.5 389.5C130.566 391.17 133.233 395.003 132.5 401C124.92 401.813 117.42 401.647 110 400.5C109.5 399.5 109 398.5 108.5 397.5C114.401 395.768 119.734 393.102 124.5 389.5Z" fill="#362824"/>
</svg>
